<svg width="25" height="25" viewBox="0 0 25 25" fill="none" xmlns="http://www.w3.org/2000/svg">
<path fill-rule="evenodd" clip-rule="evenodd" d="M17.4957 6.81081C17.4957 9.35837 15.3485 11.4236 12.6996 11.4236C10.0506 11.4236 7.90339 9.35837 7.90339 6.81081C7.90339 4.26376 10.0506 2.19849 12.6996 2.19849C15.3485 2.19849 17.4957 4.26376 17.4957 6.81081ZM6.46908 12.5769C3.82021 12.5769 1.67285 14.6415 1.67285 17.1891C1.67285 19.7365 3.82021 21.8015 6.46908 21.8015C9.11805 21.8015 11.2655 19.7365 11.2655 17.1891C11.2655 14.6415 9.11805 12.5769 6.46908 12.5769ZM18.93 12.5765C16.2812 12.5765 14.1338 14.6415 14.1338 17.1891C14.1338 19.7365 16.2812 21.8015 18.93 21.8015C21.5789 21.8015 23.7263 19.7365 23.7263 17.1891C23.7263 14.6415 21.5789 12.5765 18.93 12.5765Z" fill="#888888"/>
</svg>
