<svg width="25" height="25" viewBox="0 0 25 25" fill="none" xmlns="http://www.w3.org/2000/svg">
<path d="M20.928 2H4.07212C3.58556 2.00077 3.11909 2.18529 2.77458 2.51326C2.43007 2.84123 2.23551 3.286 2.2334 3.75044V21.2501C2.23568 21.7145 2.4303 22.1591 2.7748 22.4869C3.11929 22.8148 3.58567 22.9992 4.07212 23H20.928C21.4145 22.9992 21.8808 22.8148 22.2253 22.4869C22.5698 22.1591 22.7645 21.7145 22.7667 21.2501V20.4328C22.7359 19.3833 22.7051 17.196 22.7051 16.204C22.7051 15.6501 22.2764 15.1833 21.7245 15.1833C21.1116 15.1833 20.713 15.5331 20.4063 15.8248C19.4872 16.6127 18.1086 16.7585 16.9136 16.5539C16.3617 16.4375 15.8406 16.2916 15.4112 16.0294C14.0936 15.3003 13.2356 13.9291 13.2356 12.4709C13.2356 11.0127 14.0936 9.6709 15.4112 8.91239C15.8714 8.65015 16.3919 8.50433 16.913 8.3879C18.0772 8.18328 19.4878 8.32911 20.4069 9.11701C20.7438 9.40865 21.1424 9.75792 21.7251 9.75792C22.2764 9.75792 22.7051 9.29164 22.7051 8.73776C22.7051 7.77522 22.7359 5.5585 22.7667 4.50836V3.74985C22.7643 3.28562 22.5696 2.84115 22.2251 2.51343C21.8806 2.18572 21.4144 2.00136 20.928 2.00059V2Z" fill="#888888"/>
</svg>
