<svg width="25" height="25" viewBox="0 0 25 25" fill="none" xmlns="http://www.w3.org/2000/svg">
<path d="M8.58002 5.89251C8.58002 6.13129 8.55965 6.52926 8.31519 6.78794C8.05036 7.02672 7.64293 7.04662 7.39847 7.04662H4.79091C4.03716 7.04662 3.58898 7.04662 3.28341 7.08642C3.12044 7.10632 2.91672 7.18591 2.81486 7.22571C2.77412 7.24561 2.77412 7.22571 2.79449 7.20581L8.74299 1.29594C8.76337 1.27604 8.78374 1.27604 8.76337 1.31584C8.72262 1.41533 8.64114 1.61432 8.62076 1.77351C8.58002 2.07199 8.58002 2.50975 8.58002 3.246V5.89251ZM14.1211 23.7614C13.4285 23.3236 13.0618 22.7466 12.9192 22.3884C12.7766 22.0501 12.6951 21.6721 12.6951 21.294C12.6951 19.6424 14.0803 18.2893 15.7916 18.2893C16.3008 18.2893 16.7083 18.6873 16.7083 19.1847C16.7083 19.523 16.5249 19.8016 16.2397 19.9608C16.1379 20.0205 15.9953 20.0603 15.8934 20.0802C15.7916 20.1001 15.4045 20.1399 15.2212 20.2991C15.0174 20.4582 14.8545 20.7169 14.8545 20.9955C14.8545 21.294 14.9767 21.5726 15.1804 21.7715C15.5471 22.1297 16.036 22.3287 16.5657 22.3287C17.9509 22.3287 19.0714 21.2343 19.0714 19.8812C19.0714 18.6674 18.2361 17.5929 17.1361 17.1153C16.9731 17.0357 16.7083 16.976 16.4638 16.9163C16.1582 16.8566 15.873 16.8168 15.8527 16.8168C14.9971 16.7173 12.8581 16.0607 12.7155 14.2101C12.7155 14.2101 12.0839 16.9959 10.8209 17.752C10.6987 17.8117 10.5357 17.8714 10.3523 17.9112C10.169 17.951 9.96529 17.9709 9.90417 17.9709C7.84664 18.0903 5.66688 17.4536 4.15939 15.9413C4.15939 15.9413 3.14081 15.1254 2.61115 12.8371C2.48892 12.2799 2.24446 11.285 2.10186 10.3498C2.04074 10.0115 2.02037 9.75282 2 9.51404C2 8.53901 2.61115 7.88236 3.38527 7.78287C3.40564 7.78287 3.46675 7.78287 3.5075 7.78287C3.97604 7.78287 7.54107 7.78287 7.54107 7.78287C8.25408 7.78287 8.66151 7.60378 8.92634 7.365C9.27265 7.04662 9.35414 6.58896 9.35414 6.05169C9.35414 6.05169 9.35414 2.43016 9.35414 1.97249C9.35414 1.95259 9.35414 1.873 9.35414 1.8531C9.456 1.11686 10.1283 0.5 11.1265 0.5C11.1265 0.5 11.432 0.5 11.6154 0.5C11.8191 0.5 12.0636 0.519899 12.2876 0.539797C12.4506 0.559696 12.5932 0.599493 12.8377 0.659188C14.0803 0.957667 14.3452 2.19138 14.3452 2.19138C14.3452 2.19138 16.6879 2.58935 17.8695 2.78833C18.9899 2.98732 21.7604 3.16641 22.2901 5.89251C23.5328 12.3794 22.779 18.6674 22.7179 18.6674C21.8419 24.7961 16.6268 24.4976 16.6268 24.4976C15.5064 24.4976 14.6711 24.1395 14.1211 23.7614ZM18.8066 10.7279C18.1343 10.6682 17.5639 10.9268 17.3602 11.4243C17.3194 11.5238 17.2787 11.6432 17.2991 11.7029C17.3194 11.7626 17.3602 11.7825 17.4009 11.8024C17.6454 11.9218 18.0528 11.9815 18.6436 12.0412C19.2344 12.1009 19.6418 12.1407 19.9066 12.1009C19.9474 12.1009 19.9881 12.081 20.0288 12.0213C20.0696 11.9616 20.0492 11.8422 20.0492 11.7427C19.9677 11.1855 19.4788 10.8074 18.8066 10.7279Z" fill="#888888"/>
</svg>
