<svg
	width="306"
	height="92"
	viewBox="0 0 306 92"
	fill="none"
	xmlns="http://www.w3.org/2000/svg"
>
<path
		d="M0 19.5058C0 8.73321 8.73321 0 19.5058 0H65.8537C76.6268 0 85.36 8.73321 85.36 19.5058V65.8537C85.36 76.6268 76.6268 85.36 65.8537 85.36H19.5058C8.73321 85.36 0 76.6268 0 65.8537V19.5058Z"
		fill="black"
	/>
<path
		d="M22.6738 62.686C22.6738 57.1615 27.1524 52.6829 32.677 52.6829H42.6797V62.686C42.6797 68.2106 38.2016 72.6892 32.677 72.6892C27.1524 72.6892 22.6738 68.2106 22.6738 62.686Z"
		fill="#24CB71"
	/>
<path
		d="M42.6798 12.6707V32.6766H52.683C58.2076 32.6766 62.6862 28.1984 62.6862 22.6738C62.6862 17.1493 58.2076 12.6707 52.683 12.6707H42.6798Z"
		fill="#FF7237"
	/>
<path
		d="M52.5999 52.6829C58.1245 52.6829 62.6031 48.2043 62.6031 42.6797C62.6031 37.1551 58.1245 32.6766 52.5999 32.6766C47.0753 32.6766 42.5968 37.1551 42.5968 42.6797C42.5968 48.2043 47.0753 52.6829 52.5999 52.6829Z"
		fill="#00B6FF"
	/>
<path
		d="M22.6738 22.6738C22.6738 28.1984 27.1524 32.677 32.677 32.677H42.6797V12.6707H32.677C27.1524 12.6707 22.6738 17.1493 22.6738 22.6738Z"
		fill="#FF3737"
	/>
<path
		d="M22.6738 42.6797C22.6738 48.2043 27.1524 52.6829 32.677 52.6829H42.6797V32.677H32.677C27.1524 32.677 22.6738 37.1551 22.6738 42.6797Z"
		fill="#874FFF"
	/>
<path
		d="M286.755 72.1127C284.125 72.1127 281.763 71.6041 279.67 70.5872C277.63 69.5704 275.993 68.2054 274.759 66.4926C273.578 64.7264 272.988 62.6923 272.988 60.3906C272.988 57.3936 273.954 54.9582 275.886 53.0845C277.818 51.2113 280.582 49.927 284.178 49.2311L293.598 47.3039C295.476 46.9295 296.765 46.3406 297.462 45.5377C298.16 44.7349 298.509 43.5575 298.509 42.0053L299.475 51.3985L285.95 54.2891C284.125 54.6635 282.703 55.3327 281.683 56.296C280.717 57.2599 280.234 58.5977 280.234 60.3104C280.234 62.0771 280.904 63.4951 282.246 64.5659C283.641 65.6363 285.52 66.1717 287.882 66.1717C289.814 66.1717 291.585 65.7433 293.195 64.8869C294.859 64.0305 296.147 62.8527 297.06 61.3545C298.026 59.8022 298.509 58.036 298.509 56.0553V42.0053C298.509 40.0781 297.811 38.5798 296.416 37.509C295.074 36.3852 293.222 35.823 290.861 35.823C287.855 35.823 285.547 36.5724 283.937 38.0712C282.327 39.5699 281.388 41.6838 281.119 44.4139L274.034 43.4505C274.303 40.6135 275.161 38.1781 276.611 36.1445C278.06 34.0568 279.992 32.4511 282.407 31.3272C284.823 30.2029 287.694 29.6412 291.022 29.6412C295.745 29.6412 299.368 30.8453 301.89 33.2539C304.413 35.6625 305.674 38.767 305.674 42.567V70.9082H298.67V65.6898C297.972 67.456 296.55 68.9815 294.403 70.2663C292.31 71.4971 289.76 72.1127 286.755 72.1127Z"
		fill="black"
	/>
<path
		d="M215.903 70.9082V30.8453H222.907V35.3416C223.444 33.7893 224.625 32.4511 226.45 31.3272C228.274 30.2029 230.394 29.6412 232.81 29.6412C235.171 29.6412 237.345 30.1494 239.331 31.1663C241.317 32.1836 242.605 33.7091 243.195 35.7428C243.893 33.8696 245.181 32.3976 247.06 31.3272C248.992 30.2029 251.139 29.6412 253.5 29.6412C257.58 29.6412 260.693 30.8186 262.84 33.1737C264.987 35.5288 266.06 38.9543 266.06 43.4505V70.9082H258.895V44.4139C258.895 41.7373 258.304 39.7304 257.124 38.3921C255.996 37.0008 254.332 36.3049 252.132 36.3049C249.717 36.3049 247.838 37.1613 246.496 38.874C245.208 40.5333 244.564 42.9686 244.564 46.1801V70.9082H237.399V44.4139C237.399 41.7373 236.808 39.7304 235.628 38.3921C234.5 37.0008 232.836 36.3049 230.636 36.3049C228.221 36.3049 226.342 37.1613 225 38.874C223.712 40.5333 223.068 42.9686 223.068 46.1801V70.9082H215.903Z"
		fill="black"
	/>
<path
		d="M188.505 85.3599C183.513 85.3599 179.461 84.2093 176.348 81.9077C173.235 79.6061 171.249 76.3946 170.39 72.2732L177.395 70.7477C177.985 73.3703 179.246 75.4045 181.178 76.8497C183.111 78.3485 185.553 79.0979 188.505 79.0979C192.047 79.0979 194.704 78.1875 196.475 76.3678C198.3 74.6016 199.213 71.9523 199.213 68.4193V62.0771C198.407 64.0573 196.904 65.663 194.704 66.8938C192.557 68.1251 190.142 68.7408 187.458 68.7408C183.916 68.7408 180.803 67.9379 178.119 66.3322C175.436 64.6729 173.342 62.3713 171.84 59.4273C170.336 56.4837 169.585 53.0845 169.585 49.2311C169.585 45.3238 170.336 41.8983 171.84 38.9543C173.342 36.0102 175.409 33.7358 178.039 32.1301C180.722 30.4709 183.862 29.6412 187.458 29.6412C190.142 29.6412 192.584 30.2564 194.785 31.4877C197.039 32.665 198.568 34.137 199.374 35.9033V30.8453H206.378V68.4193C206.378 71.9523 205.68 74.9761 204.284 77.4921C202.889 80.0612 200.849 82.0147 198.166 83.353C195.536 84.6908 192.315 85.3599 188.505 85.3599ZM188.344 62.398C191.779 62.398 194.516 61.1935 196.556 58.7849C198.649 56.3763 199.696 53.192 199.696 49.2311C199.696 45.2168 198.649 42.0053 196.556 39.5967C194.462 37.188 191.725 35.9835 188.344 35.9835C184.909 35.9835 182.145 37.188 180.051 39.5967C178.012 42.0053 176.992 45.2168 176.992 49.2311C176.992 53.192 178.039 56.3763 180.132 58.7849C182.225 61.1935 184.963 62.398 188.344 62.398Z"
		fill="black"
	/>
<path
		d="M155.125 70.8615V30.8454H162.29V70.9083L155.125 70.8615ZM155.045 25.7072V14.3065H162.371V25.7072H155.045Z"
		fill="black"
	/>
<path
		d="M113.972 70.9083V14.3065H121.54V70.9083H113.972ZM115.502 46.9831V40.1584H146.337V46.9831H115.502ZM115.502 21.2109V14.3065H149.316V21.2109H115.502Z"
		fill="black"
	/>
</svg>
