<svg width="25" height="25" viewBox="0 0 25 25" fill="none" xmlns="http://www.w3.org/2000/svg">
<path d="M14.7595 0H5.15614C4.22405 0 3.46143 0.767045 3.46143 1.70455V23.2955C3.46143 24.233 4.22405 25 5.15614 25H19.8436C20.7757 25 21.5383 24.233 21.5383 23.2955V6.81818L17.584 3.97727L14.7595 0Z" fill="#888888"/>
<path d="M7.98047 18.1818H17.0189V17.0455H7.98047V18.1818ZM7.98047 20.4545H14.7593V19.3182H7.98047V20.4545ZM7.98047 12.5V13.6364H17.0189V12.5H7.98047ZM7.98047 15.9091H17.0189V14.7727H7.98047V15.9091Z" fill="#FAF9F5"/>
<path d="M14.7593 0V5.11364C14.7593 6.0554 15.5177 6.81818 16.454 6.81818H21.5381L14.7593 0Z" fill="#A3A29F"/>
<path d="M5.15614 0C4.22405 0 3.46143 0.767045 3.46143 1.70455V1.84659C3.46143 0.909091 4.22405 0.142045 5.15614 0.142045H14.7595V0H5.15614Z" fill="white" fill-opacity="0.2"/>
<path d="M19.8436 24.8579H5.15614C4.22405 24.8579 3.46143 24.0908 3.46143 23.1533V23.2954C3.46143 24.2329 4.22405 24.9999 5.15614 24.9999H19.8436C20.7757 24.9999 21.5383 24.2329 21.5383 23.2954V23.1533C21.5383 24.0908 20.7757 24.8579 19.8436 24.8579Z" fill="#1A237E" fill-opacity="0.2"/>
<path d="M16.454 6.81831C15.5177 6.81831 14.7593 6.05553 14.7593 5.11377V5.25582C14.7593 6.19758 15.5177 6.96036 16.454 6.96036H21.5381V6.81831H16.454Z" fill="#1A237E" fill-opacity="0.1"/>
</svg>
