<svg width="25" height="25" viewBox="0 0 25 25" fill="none" xmlns="http://www.w3.org/2000/svg">
<path d="M3.25337 19.6164C2.71445 19.6175 2.18487 19.4756 1.71875 19.2052C1.25262 18.9347 0.866648 18.5453 0.600263 18.0768C0.337954 17.6116 0.207134 17.0839 0.221816 16.55C0.236497 16.0162 0.396127 15.4964 0.683606 15.0464L6.14724 6.4666C6.42688 6.00549 6.8239 5.62687 7.29775 5.3694C7.7716 5.11194 8.3053 4.98486 8.84433 5.00115C9.38295 5.01405 9.90847 5.16983 10.3671 5.45255C10.8258 5.73526 11.2011 6.13475 11.4546 6.61014C11.9639 7.57322 11.9003 8.73193 11.2902 9.63597L5.83007 18.2157C5.55318 18.6472 5.17185 19.0018 4.72142 19.2466C4.27099 19.4915 3.76604 19.6186 3.25337 19.6164Z" fill="#888888"/>
<path d="M12.6248 19.6162C11.5228 19.6162 10.5088 19.027 9.97633 18.0802C9.71461 17.6163 9.58409 17.0899 9.59877 16.5574C9.61345 16.025 9.77278 15.5066 10.0597 15.0578L15.5129 6.49772C15.7884 6.03013 16.184 5.64476 16.6587 5.38158C17.1333 5.11841 17.6697 4.98701 18.2123 5.00101C19.3235 5.02532 20.3306 5.64693 20.8399 6.61927C21.3458 7.59161 21.2717 8.75726 20.6431 9.65899L15.1911 18.2191C14.9151 18.6487 14.5353 19.0019 14.0868 19.2461C13.6382 19.4903 13.1355 19.6176 12.6248 19.6162Z" fill="#888888"/>
<path d="M21.7865 19.6878C23.34 19.6878 24.5993 18.4549 24.5993 16.934C24.5993 15.4131 23.34 14.1802 21.7865 14.1802C20.233 14.1802 18.9736 15.4131 18.9736 16.934C18.9736 18.4549 20.233 19.6878 21.7865 19.6878Z" fill="#888888"/>
</svg>
