<svg
	width="75"
	height="23"
	viewBox="0 0 75 23"
	fill="none"
	xmlns="http://www.w3.org/2000/svg"
>
<g clip-path="url(#clip0_13_4)">
<path
			d="M5.19 9.76C3.4 9.76 2.523 11.336 2.523 13.441V18.716H0V7.585H2.478V10.473H2.521C3.051 8.697 4.106 7.263 5.733 7.263C6.877 7.263 7.36 7.662 7.36 7.662L6.22 9.955C6.22 9.953 5.858 9.76 5.19 9.76ZM35.686 11.288V18.715H33.228V12.192C33.228 10.32 32.641 9.328 31.14 9.328C29.587 9.328 28.835 10.582 28.835 12.988V18.714H26.4V12.192C26.4 10.392 25.82 9.328 24.334 9.328C22.639 9.328 21.986 10.814 21.986 12.988V18.714H19.508V7.584H21.986V10.105H22.008C22.394 8.361 23.448 7.285 25.226 7.285C26.99 7.285 28.139 8.232 28.575 9.912C28.99 8.295 30.095 7.284 31.793 7.284C34.163 7.284 35.686 8.77 35.686 11.288ZM12.318 7.262C10.038 7.262 8.545 8.333 7.865 10.267L9.964 11.03C10.346 9.864 11.144 9.2 12.362 9.2C13.732 9.2 14.537 9.803 14.537 10.728C14.537 11.675 13.897 11.873 12.449 12.107C10.839 12.366 7.012 12.451 7.012 15.68C7.012 17.572 8.594 18.995 10.97 18.995C12.756 18.995 13.973 18.265 14.536 16.906H14.558V18.716H17.015V11.868C17.015 8.873 15.507 7.262 12.318 7.262ZM14.601 13.476C14.601 15.81 13.446 17.309 11.601 17.309C10.295 17.309 9.513 16.577 9.513 15.521C9.513 14.531 10.317 13.843 11.861 13.56C13.441 13.27 14.236 12.912 14.601 12.053V13.476ZM44.427 7.284C42.547 7.284 41.306 8.317 40.774 9.869V7.585H38.164V23H40.752V16.432H40.774C41.35 18.113 42.549 19.038 44.427 19.038C47.406 19.038 49.537 16.584 49.537 13.117C49.537 9.674 47.406 7.284 44.427 7.284ZM43.785 16.972C41.722 16.972 40.578 15.475 40.578 13.15C40.578 10.825 41.858 9.328 43.785 9.328C45.711 9.328 46.993 10.898 46.993 13.15C46.993 15.403 45.713 16.972 43.785 16.972ZM75.172 18.665V18.735L65.072 18.738V18.665C66.529 17.842 67.534 17.005 68.439 16.129H72.586L75.172 18.665ZM72.67 5.51L70.11 3H70.035C70.035 3 70.078 7.68 65.78 11.936C61.574 16.102 56.628 16.111 56.628 16.111V16.184L59.236 18.739C59.236 18.739 64.11 18.787 68.416 14.564C72.706 10.354 72.67 5.51 72.67 5.51Z"
			fill="black"
		/>
</g>
<defs>
<clipPath id="clip0_13_4">
<rect width="75" height="23" fill="white" />
</clipPath>
</defs>
</svg>
