<svg
	version="1.1"
	id="Layer_1"
	x="0px"
	y="0px"
	viewBox="74.262 74.262 839.852 224.776"
	style="enable-background:new 0 0 963.8 373.3;"
	xmlns="http://www.w3.org/2000/svg"
>
  <path
		d="M848.3,193.7l13.1-34.4l13.1,34.4H848.3z M875,139.8h-27.3l-38.1,93.3h23.6l8.7-22.8h38.9l8.7,22.8h23.6L875,139.8z M682.7,216.9c-15.4,0-27.8-13.9-27.8-31c0-17.1,12.5-31,27.8-31c15.4,0,27.8,13.9,27.8,31C710.5,203,698.1,216.9,682.7,216.9 M682.7,136.6c-27.2,0-49.3,22.1-49.3,49.3c0,27.2,22.1,49.3,49.3,49.3c27.2,0,49.3-22.1,49.3-49.3 C732,158.6,709.9,136.6,682.7,136.6 M488.1,216.9c-15.4,0-27.8-13.9-27.8-31c0-17.1,12.5-31,27.8-31c15.4,0,27.8,13.9,27.8,31 C516,203,503.5,216.9,488.1,216.9 M488.1,136.6c-27.2,0-49.3,22.1-49.3,49.3c0,27.2,22.1,49.3,49.3,49.3c27.2,0,49.3-22.1,49.3-49.3 C537.4,158.6,515.4,136.6,488.1,136.6 M610,139.8l-24.2,37.8l-24.2-37.8H538l37.4,58.5v34.8h20.8v-34.8l37.4-58.5H610z M814.6,139.8 h-79.8v17.9h29.6v75.4h20.8v-75.4h29.4V139.8z M354.7,157.7h29.6v75.4H405v-75.4h29.4v-17.9h-79.8V157.7z"
	/>
  <g>
    <path
			d="M166.1,188.5c0-0.9,0-1.8,0-2.6c-24.2-3.6-41.6-13.5-41.6-25c0-0.5,0-1,0.1-1.6c-6.2,7.4-9.7,16-9.7,25.2 c0,26.2,28.8,47.8,65.4,50C172.1,228.2,166.1,210,166.1,188.5z"
		/>
    <path
			d="M186.7,152.8c-5.5,0-10.1,8.5-12,20.5c3.9,0.3,7.9,0.5,12,0.5c4.2,0,8.2-0.2,12-0.5C196.8,161.4,192.1,152.8,186.7,152.8z"
		/>
    <path
			d="M167.3,172.5c2.8-18.8,10.4-32.4,19.4-32.4c9,0,16.6,13.5,19.4,32.4c17.1-2.7,29-8.7,29-15.8c0-9.5-21.7-17.2-48.4-17.2 c-26.7,0-48.4,7.7-48.4,17.2C138.3,163.7,150.2,169.8,167.3,172.5z"
		/>
    <path
			d="M74.7,74.7v224h224v-224H74.7z M186.7,240.8c-46.4,0-84-24.3-84-54.3c0-21.3,19-39.8,46.6-48.7c10.4-3.3,23.3-5.3,37.4-5.3 c14,0,27,2,37.4,5.3c27.6,8.9,46.6,27.3,46.6,48.7C270.7,216.5,233.1,240.8,186.7,240.8z"
		/>
    <path
			d="M248.8,160.8c0,11.6-17.4,21.4-41.6,25c0,0.9,0,1.7,0,2.6c0,21.5-6,39.7-14.2,46c36.7-2.2,65.4-23.8,65.4-50 c0-9.2-3.5-17.8-9.7-25.2C248.8,159.8,248.8,160.3,248.8,160.8z"
		/>
    <path
			d="M186.7,187.3c-4.4,0-8.7-0.2-12.9-0.6c0.3,17.1,6,30.7,12.9,30.7c6.9,0,12.6-13.6,12.9-30.7 C195.4,187.1,191.1,187.3,186.7,187.3z"
		/>
  </g>
  <g>
    <rect x="74.7" y="74.7" fill="#EB0A1E" width="224" height="224" />
    <path
			fill="white"
			d="M224,137.8c-10.4-3.3-23.3-5.3-37.4-5.3c-14,0-27,2-37.4,5.3c-27.6,8.9-46.6,27.3-46.6,48.7 c0,30,37.6,54.3,84,54.3c46.4,0,84-24.3,84-54.3C270.7,165.2,251.7,146.7,224,137.8 M186.7,217.5c-6.9,0-12.6-13.6-12.9-30.7 c4.2,0.4,8.5,0.6,12.9,0.6c4.4,0,8.7-0.2,12.9-0.6C199.2,203.9,193.6,217.5,186.7,217.5 M174.6,173.4c1.9-12,6.6-20.5,12-20.5 c5.5,0,10.1,8.5,12,20.5c-3.8,0.3-7.9,0.5-12,0.5C182.5,173.9,178.5,173.7,174.6,173.4 M206.1,172.5c-2.8-18.8-10.4-32.4-19.4-32.4 c-9,0-16.6,13.5-19.4,32.4c-17.1-2.7-29-8.7-29-15.8c0-9.5,21.7-17.2,48.4-17.2c26.7,0,48.4,7.7,48.4,17.2 C235,163.7,223.1,169.8,206.1,172.5 M114.9,184.5c0-9.2,3.5-17.8,9.7-25.2c-0.1,0.5-0.1,1-0.1,1.6c0,11.6,17.4,21.4,41.6,25 c0,0.9,0,1.8,0,2.6c0,21.5,6,39.7,14.2,46C143.7,232.3,114.9,210.7,114.9,184.5 M193,234.5c8.2-6.3,14.2-24.5,14.2-46 c0-0.9,0-1.8,0-2.6c24.2-3.6,41.6-13.5,41.6-25c0-0.5,0-1-0.1-1.6c6.2,7.4,9.7,16,9.7,25.2C258.4,210.7,229.6,232.3,193,234.5"
		/>
  </g>
</svg>
