<svg width="25" height="25" viewBox="0 0 25 25" fill="none" xmlns="http://www.w3.org/2000/svg">
<path fill-rule="evenodd" clip-rule="evenodd" d="M5 2.5C3.6193 2.5 2.5 3.62 2.5 5V20C2.5 21.3806 3.62 22.5 5 22.5H20C21.3806 22.5 22.5 21.38 22.5 20V5C22.5 3.6193 21.38 2.5 20 2.5H5ZM14.9997 5.1C14.337 5.1 13.8 5.6372 13.8 6.3006V12.6994C13.8 13.3624 14.3373 13.9 14.9997 13.9H18.7003C19.3629 13.9 19.9 13.3628 19.9 12.6994V6.3006C19.9 5.6376 19.3627 5.1 18.7003 5.1H14.9997V5.1ZM6.2997 5.1C5.637 5.1 5.1 5.6367 5.1 6.3005V17.6995C5.1 18.3625 5.6373 18.9 6.2997 18.9H10.0003C10.6629 18.9 11.2 18.3633 11.2 17.6995V6.3005C11.2 5.6375 10.6627 5.1 10.0003 5.1H6.2997V5.1Z" fill="#888888"/>
</svg>
