<svg
	width="311"
	height="100"
	viewBox="0 0 311 100"
	fill="none"
	xmlns="http://www.w3.org/2000/svg"
>
<path
		d="M155.663 32.5C143.588 32.5 134.881 40.375 134.881 52.1875C134.881 64 144.67 71.875 156.757 71.875C164.051 71.875 170.483 68.9875 174.464 64.1203L166.097 59.2859C163.888 61.7032 160.53 63.1141 156.757 63.1141C151.517 63.1141 147.066 60.3797 145.414 56.0047H176.061C176.301 54.7797 176.444 53.5109 176.444 52.1766C176.444 40.375 167.749 32.5 155.663 32.5ZM145.326 48.3593C146.693 43.9953 150.434 41.25 155.663 41.25C160.901 41.25 164.642 43.9953 165.999 48.3593H145.326ZM142.855 20.4688L112.547 72.9688L82.2283 20.4688H93.5921L112.536 53.2813L131.48 20.4688H142.855ZM40.4141 15L80.8283 85H0L40.4141 15ZM220.413 52.1875C220.413 58.75 224.7 63.125 231.35 63.125C235.857 63.125 239.236 61.0797 240.975 57.7438L249.375 62.5891C245.897 68.3859 239.378 71.875 231.35 71.875C219.264 71.875 210.569 64 210.569 52.1875C210.569 40.375 219.275 32.5 231.35 32.5C239.378 32.5 245.886 35.9891 249.375 41.7859L240.975 46.6313C239.236 43.2953 235.857 41.25 231.35 41.25C224.711 41.25 220.413 45.625 220.413 52.1875ZM310.625 20.4688V70.7813H300.782V20.4688H310.625ZM273.438 32.5C261.363 32.5 252.657 40.375 252.657 52.1875C252.657 64 262.457 71.875 274.532 71.875C281.826 71.875 288.258 68.9875 292.239 64.1203L283.872 59.2859C281.663 61.7032 278.305 63.1141 274.532 63.1141C269.292 63.1141 264.841 60.3797 263.189 56.0047H293.836C294.076 54.7797 294.218 53.5109 294.218 52.1766C294.218 40.375 285.524 32.5 273.438 32.5ZM263.101 48.3593C264.469 43.9953 268.199 41.25 273.438 41.25C278.676 41.25 282.417 43.9953 283.774 48.3593H263.101ZM207.288 33.5938V44.1922C206.194 43.875 205.034 43.6563 203.788 43.6563C197.433 43.6563 192.85 48.0313 192.85 54.5938V70.7813H183.007V33.5938H192.85V43.6563C192.85 38.1 199.314 33.5938 207.288 33.5938Z"
		fill="black"
	/>
</svg>
